<svg version="1" xmlns="http://www.w3.org/2000/svg" width="682.667" height="682.667" viewBox="0 0 512.000000 512.000000"><path d="M228.5 1.1c-36.4 4.3-75.3 17.3-103.3 34.6-22.1 13.6-32.4 21.7-49.6 38.8-12.1 12-15.8 16.1-21.6 24-2.5 3.3-5.2 6.8-6 7.7-1.9 2.3-9.6 14.5-11.2 17.8-.7 1.4-1.9 3.1-2.7 3.9-2 2.2-13.4 26.2-17.5 36.9C4.6 196.2-.1 224.2.5 260c.2 12.4.7 24.3 1 26.5 2.4 15 3.9 23.3 6.1 32 9.4 37.7 28.3 74.2 54.1 104.7 1.5 1.8 8.3 8.8 15.1 15.5 14.7 14.7 31.4 27.6 50.2 38.8 6.7 3.9 30.7 15.5 32.3 15.5.7 0 1.7.4 2.3.9 2.9 2.9 38.3 12.9 51.9 14.7 2.8.3 5.3.8 5.6 1 1.8 1.1 20.1 1.9 40.9 1.8 20.5-.1 25.3-.4 38-2.7 26.1-4.6 48.5-11.9 70.5-22.8 15.5-7.7 19.9-10.1 20.3-11.1.2-.4.9-.8 1.5-.8 1.4 0 23.2-15.6 30.8-22 9-7.6 27.1-26 34.3-35 30.7-38.3 51.2-88.1 55.4-134.5 1.1-12.7.7-50.2-.6-59.5-6.8-46.3-21.9-83-50.7-122.9-8.7-11.9-31.2-34.7-44.8-45.2C376.3 25.1 334.4 7.8 286 1.6c-11.6-1.5-46.4-1.8-57.5-.5z"/></svg>